<svg width="25" height="24" viewBox="0 0 25 24" fill="none" xmlns="http://www.w3.org/2000/svg">
<path d="M12.9101 10.87C12.8101 10.86 12.6901 10.86 12.5801 10.87C10.2001 10.79 8.31006 8.84 8.31006 6.44C8.31006 3.99 10.2901 2 12.7501 2C15.2001 2 17.1901 3.99 17.1901 6.44C17.1801 8.84 15.2901 10.79 12.9101 10.87Z" stroke="#A2A2A2" stroke-width="1.5" stroke-linecap="round" stroke-linejoin="round"/>
<path d="M7.91021 14.56C5.49021 16.18 5.49021 18.82 7.91021 20.43C10.6602 22.27 15.1702 22.27 17.9202 20.43C20.3402 18.81 20.3402 16.17 17.9202 14.56C15.1802 12.73 10.6702 12.73 7.91021 14.56Z" stroke="#A2A2A2" stroke-width="1.5" stroke-linecap="round" stroke-linejoin="round"/>
</svg>
